<svg xmlns="http://www.w3.org/2000/svg" xmlns:xlink="http://www.w3.org/1999/xlink" width="79.63" height="63.809" viewBox="0 0 79.63 63.809">
  <defs>
    <filter id="SCROLL_DOWN" x="0" y="0" width="74" height="52" filterUnits="userSpaceOnUse">
      <feOffset dy="3" input="SourceAlpha"/>
      <feGaussianBlur stdDeviation="3" result="blur"/>
      <feFlood flood-opacity="0.161"/>
      <feComposite operator="in" in2="blur"/>
      <feComposite in="SourceGraphic"/>
    </filter>
    <clipPath id="clip-path">
      <rect id="Rectangle_396" data-name="Rectangle 396" width="20.718" height="76.102" fill="#fff"/>
    </clipPath>
  </defs>
  <g id="Group_611" data-name="Group 611" transform="translate(-1777 -945)">
    <g transform="matrix(1, 0, 0, 1, 1777, 945)" filter="url(#SCROLL_DOWN)">
      <text id="SCROLL_DOWN-2" data-name="SCROLL
DOWN" transform="translate(37 22)" fill="#f7f7f7" font-size="16" font-family="Corda-Regular, Corda"><tspan x="-27" y="0">SCROLL</tspan><tspan x="-23" y="14">DOWN</tspan></text>
    </g>
    <g id="Group_582" data-name="Group 582" transform="matrix(0.174, 0.985, -0.985, 0.174, 1853.033, 975.191)">
      <g id="Group_581" data-name="Group 581" clip-path="url(#clip-path)">
        <path id="Path_12572" data-name="Path 12572" d="M13.722,143.144a9.818,9.818,0,0,1,1.522-3.459,4.5,4.5,0,0,0,1-2.8,6.551,6.551,0,0,0-.442-1.719l.18.361c-.133-.306-.253-.572-.363-.857a17.276,17.276,0,0,0,1.245,1.958,6.293,6.293,0,0,0,2.665,1.572,7.334,7.334,0,0,1,3.34,2.5c.268.362.267.107.094-.511-.091-.308-.207-.71-.387-1.162s-.4-.957-.643-1.486c-.121-.264-.24-.536-.376-.806l-.436-.8c-.3-.533-.588-1.059-.89-1.538a15.651,15.651,0,0,0-1.617-2.128,6.679,6.679,0,0,0-1.382-.957,8.781,8.781,0,0,0-1.614-.682,15.754,15.754,0,0,0-2.474-.568l-.072-.12-.223-.326-.8-1.164c-.314-.494-.755-1.014-1.2-1.593-.228-.285-.453-.59-.7-.882l-.777-.866L8.6,124.24l-.808-.788c-.528-.508-1-1-1.463-1.369l-1.491-1.269-.58.769L5.78,122.75c.471.336.96.8,1.506,1.269l.835.736.811.814.812.815c.257.278.5.565.736.836.473.547.933,1.045,1.27,1.518l.85,1.114c.21.267.313.43.313.43-.13.464-.39,1.413-.6,2.421a10.567,10.567,0,0,0-.361,2.951,14.8,14.8,0,0,0,.4,2.158c.092.449.191.926.29,1.406l.162.708.132.7c.088.456.178.884.267,1.258s.139.709.207.954c.128.494.244.669.314.3" transform="translate(-4.256 -120.815)" fill="#fff"/>
        <path id="Path_12573" data-name="Path 12573" d="M.167,105.117s.12.326.272.855.4,1.241.631,2.024c.209.788.495,1.619.716,2.385a10.908,10.908,0,0,0,.715,1.9A5.532,5.532,0,0,0,4.718,114.3a9.5,9.5,0,0,1,1.4,1.133,6.443,6.443,0,0,1,1.3,1.833c.184.388.232.146.186-.468a26.331,26.331,0,0,0-.486-2.687,22.417,22.417,0,0,0-2.093-5.627,6.8,6.8,0,0,0-1.293-1.38,11.447,11.447,0,0,0-1.625-1.079c-.529-.3-1.01-.525-1.359-.678s-.583-.228-.583-.228" transform="translate(13.022 -87.965)" fill="#fff"/>
        <path id="Path_12574" data-name="Path 12574" d="M15.221,116.058a7.8,7.8,0,0,1,.95-1.738,13.592,13.592,0,0,1,1.12-1.294,4.631,4.631,0,0,0,1.489-2.459,9.43,9.43,0,0,0-.114-1.977,22.2,22.2,0,0,0-.53-2.39c-.212-.774-.482-1.468-.657-1.98a8.7,8.7,0,0,0-.321-.821l-.292.535c-.187.336-.439.8-.7,1.317s-.515,1.081-.75,1.643a6.35,6.35,0,0,0-.483,1.606c-.1.918-.044,3.153-.01,4.972-.016.919.017,1.729.056,2.232s.106.7.241.353" transform="translate(-4.677 -85.983)" fill="#fff"/>
        <path id="Path_12575" data-name="Path 12575" d="M0,84.124s.045.344.115.889.13,1.3.235,2.1A32.327,32.327,0,0,0,1,91.58a5.851,5.851,0,0,0,1.852,2.335,7.2,7.2,0,0,1,2.218,3.319c.127.407.209.178.251-.43.019-.3.035-.7.028-1.16s-.053-.983-.095-1.533-.09-1.126-.163-1.7-.179-1.139-.276-1.667a13.028,13.028,0,0,0-.325-1.437,9.03,9.03,0,0,0-.336-1.017,5.358,5.358,0,0,0-.427-.8,7.92,7.92,0,0,0-.6-.773,13.187,13.187,0,0,0-1.379-1.349A13.54,13.54,0,0,0,.524,84.46C.2,84.244,0,84.124,0,84.124" transform="translate(15.364 -58.643)" fill="#fff"/>
        <path id="Path_12576" data-name="Path 12576" d="M12.735,98.137a9,9,0,0,1,2.509-2.706,4.44,4.44,0,0,0,1.876-2.194,14.012,14.012,0,0,0,.135-4.421c-.091-.8-.164-1.539-.27-2.071l-.171-.867-.392.471c-.245.294-.551.7-.913,1.162A18.218,18.218,0,0,0,14.453,89c-.161.258-.3.514-.432.768a4.7,4.7,0,0,0-.325.744,7.12,7.12,0,0,0-.208.9c-.059.365-.131.788-.213,1.241s-.146.932-.209,1.414c-.078.482-.156.967-.23,1.427s-.125.894-.165,1.277-.1.717-.124.972c-.042.511.007.714.189.392" transform="translate(-2.199 -60.274)" fill="#fff"/>
        <path id="Path_12577" data-name="Path 12577" d="M2.179,64.181s0,.086-.009.242-.021.379-.036.653c-.027.549-.059,1.3-.073,2.114-.05.812-.093,1.685-.092,2.483a13.838,13.838,0,0,0,.081,2.021,5.8,5.8,0,0,0,1.526,2.561,10.06,10.06,0,0,1,1.03,1.473,6.235,6.235,0,0,1,.736,2.089c.139.834.478-.859.587-3.046a23.059,23.059,0,0,0-.291-5.862,6.319,6.319,0,0,0-.771-1.688,13.561,13.561,0,0,0-1.178-1.535c-.4-.451-.773-.827-1.05-1.09s-.459-.413-.459-.413" transform="translate(13.862 -30.394)" fill="#fff"/>
        <path id="Path_12578" data-name="Path 12578" d="M12.423,80.5a8.094,8.094,0,0,1,1.411-1.436,12.392,12.392,0,0,1,1.437-.937A4.455,4.455,0,0,0,17.42,76.2a7.919,7.919,0,0,0,.516-1.921c.117-.776.209-1.637.271-2.44.027-.8.033-1.548.034-2.09,0-.271,0-.492,0-.646a2.136,2.136,0,0,0-.009-.239l-.468.4c-.29.253-.684.606-1.1,1.011a17.371,17.371,0,0,0-1.251,1.324A6.88,6.88,0,0,0,14.42,73c-.4.86-1.015,3.069-1.546,4.869-.506,1.8-.905,3.225-.451,2.63" transform="translate(-2.944 -35.078)" fill="#fff"/>
        <path id="Path_12579" data-name="Path 12579" d="M6.64,44.237s-.05.342-.161.88S6.237,46.4,6.107,47.2a27.776,27.776,0,0,0-.6,4.461c.078,2.051,2.271,3.07,2.506,6.474.02.42.157.222.353-.347a25.588,25.588,0,0,0,.6-2.59c.111-.53.191-1.1.259-1.664s.132-1.126.18-1.652a13.542,13.542,0,0,0,.017-2.5,8.75,8.75,0,0,0-1.5-3.442c-.33-.5-.649-.924-.886-1.223s-.407-.475-.407-.475" transform="translate(8.794 -1.875)" fill="#fff"/>
        <path id="Path_12580" data-name="Path 12580" d="M19.307,58.815a15.1,15.1,0,0,0,1.347-4.224c.141-.793.253-1.529.33-2.067s.1-.879.1-.879l-.511.335c-.323.21-.763.506-1.236.849a11.642,11.642,0,0,0-2.589,2.41,17.729,17.729,0,0,0-.991,1.985c-.2.423-.4.875-.6,1.33s-.38.916-.58,1.346c-.387.864-.688,1.646-.857,2.137s-.183.7.079.429c2.044-2.2,4.453-1.939,5.5-3.654" transform="translate(-6.402 -9.389)" fill="#fff"/>
        <path id="Path_12581" data-name="Path 12581" d="M13.208,27.019l-.844,2.7c-.2.737-.473,1.511-.663,2.235a13.046,13.046,0,0,0-.377,1.862,5.042,5.042,0,0,0,.819,2.672,7.12,7.12,0,0,1,.834,3.626c-.036.8.584-.694,1.2-2.632.275-.981.561-2.067.761-3.035a15.422,15.422,0,0,0,.287-2.323,8.489,8.489,0,0,0-1.008-3.368,12.939,12.939,0,0,0-1.01-1.734" transform="translate(0.474 23.79)" fill="#fff"/>
        <path id="Path_12582" data-name="Path 12582" d="M17.7,45.566a7.853,7.853,0,0,1,3.129-1.554,4.477,4.477,0,0,0,2.4-1.28,7.438,7.438,0,0,0,.9-1.638,19.17,19.17,0,0,0,.817-2.157c.227-.722.42-1.393.557-1.885.073-.245.112-.45.145-.59s.048-.22.048-.22-.786.373-1.762.9a10.419,10.419,0,0,0-2.691,1.963A12.932,12.932,0,0,0,20.1,40.861c-.46.751-.966,1.6-1.388,2.385-.909,1.533-1.532,2.776-1,2.32" transform="translate(-12.743 14.368)" fill="#fff"/>
        <path id="Path_12583" data-name="Path 12583" d="M21.153,10.728l-.326.748c-.186.465-.492,1.079-.785,1.76a24.1,24.1,0,0,0-1.448,3.842,4.985,4.985,0,0,0,.483,2.664,9.015,9.015,0,0,1,.43,1.588,6.459,6.459,0,0,1-.036,2.011c-.065.381.1.231.38-.24a16.622,16.622,0,0,0,1.078-2.173,22.906,22.906,0,0,0,1.62-5.051,8.782,8.782,0,0,0-.6-3.358,15.8,15.8,0,0,0-.8-1.79" transform="translate(-10.068 47.788)" fill="#fff"/>
        <path id="Path_12584" data-name="Path 12584" d="M29.148,27.867a14.212,14.212,0,0,0,2.067-3.475c.3-.67.584-1.287.745-1.757l.275-.76s-.815.266-1.785.681a9.322,9.322,0,0,0-2.817,1.6,39.962,39.962,0,0,0-2.914,3.7c-.49.708-.961,1.313-1.208,1.716s-.3.588-.012.4a6.263,6.263,0,0,1,1.672-.782,11.524,11.524,0,0,1,1.515-.358,4.282,4.282,0,0,0,2.463-.962" transform="translate(-21.851 36.358)" fill="#fff"/>
        <path id="Path_12585" data-name="Path 12585" d="M35.951,0a5.391,5.391,0,0,0-1.874.637,6.95,6.95,0,0,0-2.815,2.948c-.38.666-.952,2.31-1.572,3.867-.284.8-.6,1.556-.83,2.192a6.964,6.964,0,0,0-.408,1.407,6.331,6.331,0,0,0,1.3-.667,18.485,18.485,0,0,0,1.99-1.376,20.963,20.963,0,0,0,3.256-3,6.315,6.315,0,0,0,1.4-4.072A4.821,4.821,0,0,0,35.951,0" transform="translate(-28.306 65.05)" fill="#fff"/>
      </g>
    </g>
  </g>
</svg>
